<svg version="1.0" preserveAspectRatio="xMidYMid meet" viewBox="50.49301675977654 33.844498758 178.4413407821229 174.61799359199998" zoomAndPan="magnify" xmlns:xlink="http://www.w3.org/1999/xlink" xmlns="http://www.w3.org/2000/svg" style="max-height: 500px" width="178.4413407821229" height="174.61799359199998"><defs><g/><clipPath id="e202ed0a28"><path clip-rule="nonzero" d="M 51.265625 32.839844 L 229.304688 32.839844 L 229.304688 210.878906 L 51.265625 210.878906 Z M 51.265625 32.839844"/></clipPath></defs><g clip-path="url(#e202ed0a28)"><path fill-rule="nonzero" fill-opacity="1" d="M 51.265625 32.839844 L 229.304688 32.839844 L 229.304688 210.878906 L 51.265625 210.878906 Z M 51.265625 32.839844" fill="#000000"/></g><g fill-opacity="1" fill="#ffffff"><g transform="translate(32.867781, 175.848295)"><g><path d="M 53.65625 0.71875 L 32.96875 -0.078125 L 14.234375 -0.078125 C 11.710938 -0.078125 9.601562 -0.5 7.90625 -1.34375 C 6.21875 -2.1875 5.375 -3.238281 5.375 -4.5 C 5.375 -6.820312 5.738281 -8.441406 6.46875 -9.359375 C 8.207031 -8.878906 9.972656 -8.640625 11.765625 -8.640625 C 13.554688 -8.640625 15.066406 -8.757812 16.296875 -9 C 17.535156 -9.238281 18.640625 -9.75 19.609375 -10.53125 C 21.828125 -12.269531 22.9375 -15.296875 22.9375 -19.609375 L 22.9375 -93.59375 C 22.9375 -98.09375 20.128906 -100.898438 14.515625 -102.015625 C 11.035156 -102.742188 8.773438 -103.53125 7.734375 -104.375 C 6.691406 -105.21875 6.171875 -106.148438 6.171875 -107.171875 C 6.171875 -109.398438 6.554688 -110.898438 7.328125 -111.671875 C 8.203125 -111.429688 9.003906 -111.3125 9.734375 -111.3125 C 9.734375 -111.3125 17.066406 -111.3125 31.734375 -111.3125 C 32.847656 -111.3125 34.320312 -111.359375 36.15625 -111.453125 C 36.15625 -111.453125 38.210938 -111.570312 42.328125 -111.8125 C 48.378906 -112.101562 54.585938 -112.25 60.953125 -112.25 C 67.316406 -112.25 73.5 -111.484375 79.5 -109.953125 C 85.507812 -108.429688 90.703125 -106.363281 95.078125 -103.75 C 99.460938 -101.144531 103.117188 -98.109375 106.046875 -94.640625 C 108.972656 -91.179688 111.332031 -87.515625 113.125 -83.640625 C 116.320312 -76.523438 117.921875 -68.539062 117.921875 -59.6875 C 117.921875 -43.613281 113.753906 -30.253906 105.421875 -19.609375 C 98.890625 -11.234375 89.285156 -5.328125 76.609375 -1.890625 C 70.023438 -0.148438 62.375 0.71875 53.65625 0.71875 Z M 40.078125 -17.5 C 40.078125 -13.863281 41.21875 -11.515625 43.5 -10.453125 C 45.425781 -9.585938 50.054688 -9.15625 57.390625 -9.15625 C 64.722656 -9.15625 71.242188 -10.363281 76.953125 -12.78125 C 82.671875 -15.195312 87.222656 -18.460938 90.609375 -22.578125 C 96.710938 -29.984375 99.765625 -40.414062 99.765625 -53.875 C 99.765625 -76.96875 91.609375 -92.046875 75.296875 -99.109375 C 69.390625 -101.671875 62.101562 -102.953125 53.4375 -102.953125 C 47.675781 -102.953125 44.164062 -102.382812 42.90625 -101.25 C 41.65625 -100.113281 40.867188 -98.707031 40.546875 -97.03125 C 40.234375 -95.363281 40.078125 -93.128906 40.078125 -90.328125 Z M 40.078125 -17.5"/></g></g></g><g fill-opacity="1" fill="#ffffff"><g transform="translate(134.349825, 175.737854)"><g><path d="M 52.859375 0.578125 C 51.742188 0.191406 49.375 0 45.75 0 L 16.125 0 C 13.601562 0 11.59375 -0.394531 10.09375 -1.1875 C 8.59375 -1.988281 7.84375 -3.457031 7.84375 -5.59375 C 7.84375 -7.144531 8.207031 -8.378906 8.9375 -9.296875 C 10.769531 -8.804688 12.53125 -8.5625 14.21875 -8.5625 C 15.914062 -8.5625 17.25 -8.742188 18.21875 -9.109375 C 19.1875 -9.472656 20.035156 -10.113281 20.765625 -11.03125 C 22.210938 -12.96875 22.9375 -16.1875 22.9375 -20.6875 L 22.9375 -94.96875 C 22.800781 -98.363281 21.691406 -100.519531 19.609375 -101.4375 C 18.972656 -101.726562 18.109375 -101.992188 17.015625 -102.234375 C 15.929688 -102.472656 14.867188 -102.722656 13.828125 -102.984375 C 12.785156 -103.253906 11.90625 -103.582031 11.1875 -103.96875 C 9.726562 -104.75 9 -105.769531 9 -107.03125 C 9 -109.300781 9.390625 -110.921875 10.171875 -111.890625 C 11.273438 -111.503906 13.671875 -111.3125 17.359375 -111.3125 L 26.796875 -111.3125 L 52.28125 -112.03125 L 55.40625 -112.109375 C 70.3125 -112.109375 81.46875 -109.457031 88.875 -104.15625 C 96.28125 -98.851562 99.984375 -91.382812 99.984375 -81.75 C 99.984375 -74.539062 97.632812 -67.910156 92.9375 -61.859375 C 87.707031 -55.128906 80.492188 -50.582031 71.296875 -48.21875 C 73.816406 -46.46875 76.675781 -43.269531 79.875 -38.625 L 87.5625 -27.375 C 94.78125 -16.875 100.757812 -11.625 105.5 -11.625 C 107.289062 -11.625 108.644531 -11.789062 109.5625 -12.125 L 111.375 -12.859375 C 111.769531 -12.992188 112.207031 -13.0625 112.6875 -13.0625 C 113.175781 -13.0625 113.6875 -12.6875 114.21875 -11.9375 C 114.75 -11.1875 115.015625 -10.328125 115.015625 -9.359375 C 115.015625 -8.398438 114.601562 -7.253906 113.78125 -5.921875 C 112.957031 -4.585938 111.796875 -3.390625 110.296875 -2.328125 C 106.898438 0.140625 103.191406 1.375 99.171875 1.375 C 95.160156 1.375 91.859375 0.695312 89.265625 -0.65625 C 86.679688 -2.007812 84.3125 -3.785156 82.15625 -5.984375 C 80 -8.191406 78.035156 -10.695312 76.265625 -13.5 C 74.503906 -16.3125 72.847656 -19.191406 71.296875 -22.140625 L 67.015625 -30.78125 C 63.960938 -37.070312 61.53125 -41.125 59.71875 -42.9375 C 57.90625 -44.757812 56.25 -45.671875 54.75 -45.671875 L 47.40625 -45.671875 C 46.195312 -45.671875 45.59375 -46.539062 45.59375 -48.28125 C 45.59375 -50.707031 46.515625 -52.597656 48.359375 -53.953125 C 48.984375 -54.390625 50.867188 -54.640625 54.015625 -54.703125 C 57.160156 -54.773438 60.707031 -55.441406 64.65625 -56.703125 C 68.601562 -57.960938 71.859375 -59.679688 74.421875 -61.859375 C 79.410156 -66.171875 81.90625 -72.222656 81.90625 -80.015625 C 81.90625 -86.546875 79.726562 -91.894531 75.375 -96.0625 C 70.4375 -100.757812 63.5625 -103.15625 54.75 -103.25 C 48.9375 -103.25 45.0625 -102.378906 43.125 -100.640625 C 41.1875 -98.992188 40.171875 -95.867188 40.078125 -91.265625 L 40.078125 -17.140625 C 40.078125 -13.316406 41.144531 -10.894531 43.28125 -9.875 C 43.957031 -9.582031 44.847656 -9.316406 45.953125 -9.078125 C 47.066406 -8.835938 48.144531 -8.582031 49.1875 -8.3125 C 50.226562 -8.050781 51.113281 -7.722656 51.84375 -7.328125 C 53.289062 -6.554688 54.015625 -5.519531 54.015625 -4.21875 C 54.015625 -1.988281 53.628906 -0.390625 52.859375 0.578125 Z M 52.859375 0.578125"/></g></g></g></svg>