<svg version="1.0" preserveAspectRatio="xMidYMid meet" viewBox="77.937 36.16666588888889 347.8995 120.71211861616163" zoomAndPan="magnify" xmlns:xlink="http://www.w3.org/1999/xlink" xmlns="http://www.w3.org/2000/svg" style="max-height: 500px" width="347.8995" height="120.71211861616163"><defs><g/></defs><g fill-opacity="1" fill="#000000"><g transform="translate(81.559861, 124.629076)"><g><path d="M 188.53125 -37.109375 C 187.15625 -36.984375 185.769531 -36.859375 184.375 -36.734375 C 183.09375 -36.609375 181.804688 -36.488281 180.515625 -36.375 C 171.234375 -35.40625 161.984375 -34.148438 152.765625 -32.609375 C 142.203125 -30.921875 131.648438 -28.898438 121.109375 -26.546875 C 119.265625 -26.148438 117.5625 -25.414062 116 -24.34375 C 103.445312 -15.957031 90.488281 -8.40625 77.125 -1.6875 C 63.769531 5.019531 50.066406 11.019531 36.015625 16.3125 C 29.890625 18.726562 23.648438 20.757812 17.296875 22.40625 C 14.359375 23.175781 11.367188 23.660156 8.328125 23.859375 C 7.929688 23.890625 7.53125 23.90625 7.125 23.90625 C 5.757812 23.976562 4.460938 23.765625 3.234375 23.265625 C 1.296875 22.429688 0.707031 21.03125 1.46875 19.0625 C 2.0625 17.664062 2.941406 16.425781 4.109375 15.34375 C 6.390625 13.09375 8.910156 11.171875 11.671875 9.578125 C 18.472656 5.554688 25.515625 2.007812 32.796875 -1.0625 C 40.015625 -4.175781 47.320312 -7.039062 54.71875 -9.65625 C 54.914062 -9.6875 55.097656 -9.75 55.265625 -9.84375 C 55.503906 -9.945312 55.769531 -10.046875 56.0625 -10.140625 C 57.132812 -10.460938 57.851562 -11.1875 58.21875 -12.3125 C 58.851562 -13.988281 59.515625 -15.65625 60.203125 -17.3125 C 60.316406 -17.582031 60.4375 -17.882812 60.5625 -18.21875 C 62.0625 -21.96875 63.597656 -25.742188 65.171875 -29.546875 C 68.085938 -36.722656 71 -43.921875 73.90625 -51.140625 C 75.820312 -55.671875 77.363281 -60.34375 78.53125 -65.15625 C 78.601562 -65.59375 78.738281 -66.03125 78.9375 -66.46875 C 79.300781 -66.988281 79.785156 -67.171875 80.390625 -67.015625 C 80.617188 -67.085938 80.878906 -67.085938 81.171875 -67.015625 C 81.410156 -66.972656 81.609375 -66.867188 81.765625 -66.703125 C 81.921875 -66.546875 82 -66.347656 82 -66.109375 C 82.050781 -65.378906 82.015625 -64.675781 81.890625 -64 C 81.023438 -59.757812 79.726562 -55.640625 78 -51.640625 C 75.039062 -44.421875 72.066406 -37.1875 69.078125 -29.9375 C 67.867188 -26.96875 66.644531 -24 65.40625 -21.03125 C 65.175781 -20.46875 64.941406 -19.898438 64.703125 -19.328125 C 63.984375 -17.523438 63.242188 -15.707031 62.484375 -13.875 C 62.441406 -13.800781 62.421875 -13.742188 62.421875 -13.703125 C 62.296875 -13.503906 62.222656 -13.3125 62.203125 -13.125 C 62.179688 -12.945312 62.273438 -12.773438 62.484375 -12.609375 C 62.515625 -12.578125 62.578125 -12.539062 62.671875 -12.5 C 62.742188 -12.539062 62.84375 -12.578125 62.96875 -12.609375 C 63 -12.609375 63.035156 -12.609375 63.078125 -12.609375 C 64.972656 -13.210938 66.835938 -13.816406 68.671875 -14.421875 C 71.953125 -15.503906 75.210938 -16.570312 78.453125 -17.625 C 89.984375 -21.1875 101.625 -24.304688 113.375 -26.984375 C 114.769531 -27.296875 116.046875 -27.851562 117.203125 -28.65625 C 120.523438 -31.03125 123.796875 -33.457031 127.015625 -35.9375 C 130.234375 -38.425781 133.328125 -41.0625 136.296875 -43.84375 C 139.523438 -46.757812 142.460938 -49.984375 145.109375 -53.515625 C 146.671875 -55.566406 147.847656 -57.828125 148.640625 -60.296875 C 149.734375 -64.109375 149.035156 -67.457031 146.546875 -70.34375 C 145.617188 -71.414062 144.582031 -72.332031 143.4375 -73.09375 C 142.289062 -73.863281 141.078125 -74.53125 139.796875 -75.09375 C 135.429688 -76.957031 130.878906 -78.15625 126.140625 -78.6875 C 122.023438 -79.1875 117.90625 -79.4375 113.78125 -79.4375 C 110.007812 -79.425781 106.25 -79.265625 102.5 -78.953125 C 92.820312 -78.171875 83.257812 -76.691406 73.8125 -74.515625 C 67.363281 -73.109375 61.046875 -71.359375 54.859375 -69.265625 C 48.679688 -67.179688 42.671875 -64.546875 36.828125 -61.359375 C 34.660156 -60.253906 32.566406 -59.035156 30.546875 -57.703125 C 28.535156 -56.378906 26.609375 -54.9375 24.765625 -53.375 C 23.359375 -52.082031 22.054688 -50.71875 20.859375 -49.28125 C 19.960938 -48.3125 19.316406 -47.1875 18.921875 -45.90625 C 18.296875 -43.9375 18.726562 -42.253906 20.21875 -40.859375 C 21.125 -39.984375 22.179688 -39.328125 23.390625 -38.890625 C 25.429688 -38.035156 27.550781 -37.535156 29.75 -37.390625 C 30.914062 -37.304688 32.097656 -37.25 33.296875 -37.21875 C 34.898438 -37.144531 36.503906 -37.0625 38.109375 -36.96875 C 39.398438 -36.894531 40.664062 -36.78125 41.90625 -36.625 C 42.070312 -36.582031 42.210938 -36.5 42.328125 -36.375 C 42.441406 -36.257812 42.535156 -36.125 42.609375 -35.96875 C 42.648438 -35.632812 42.566406 -35.414062 42.359375 -35.3125 C 42.160156 -35.21875 41.960938 -35.1875 41.765625 -35.21875 L 41.421875 -35.21875 C 41.304688 -35.21875 41.1875 -35.21875 41.0625 -35.21875 C 39.894531 -35.28125 38.753906 -35.3125 37.640625 -35.3125 C 37.273438 -35.3125 36.910156 -35.3125 36.546875 -35.3125 C 35.984375 -35.3125 35.40625 -35.3125 34.8125 -35.3125 L 34.75 -35.3125 C 33.113281 -35.3125 31.492188 -35.34375 29.890625 -35.40625 C 28.285156 -35.476562 26.679688 -35.675781 25.078125 -36 C 23.273438 -36.40625 21.53125 -37.007812 19.84375 -37.8125 C 18.925781 -38.238281 18.066406 -38.769531 17.265625 -39.40625 C 14.867188 -41.40625 14.265625 -43.90625 15.453125 -46.90625 C 16.285156 -48.875 17.488281 -50.609375 19.0625 -52.109375 C 21.09375 -54.222656 23.328125 -56.128906 25.765625 -57.828125 C 32.410156 -62.390625 39.484375 -66.078125 46.984375 -68.890625 C 53.015625 -71.222656 59.144531 -73.1875 65.375 -74.78125 C 71.601562 -76.375 77.90625 -77.695312 84.28125 -78.75 C 94.09375 -80.488281 103.96875 -81.378906 113.90625 -81.421875 C 114.21875 -81.421875 114.539062 -81.421875 114.875 -81.421875 C 118.632812 -81.421875 122.382812 -81.234375 126.125 -80.859375 C 129.875 -80.484375 133.566406 -79.78125 137.203125 -78.75 C 140.210938 -77.914062 143.066406 -76.710938 145.765625 -75.140625 C 147.160156 -74.316406 148.414062 -73.320312 149.53125 -72.15625 C 153.238281 -68.3125 154.125 -63.820312 152.1875 -58.6875 C 151.320312 -56.414062 150.128906 -54.296875 148.609375 -52.328125 C 145.796875 -48.617188 142.675781 -45.226562 139.25 -42.15625 C 135.039062 -38.332031 130.65625 -34.738281 126.09375 -31.375 C 125.96875 -31.269531 125.804688 -31.171875 125.609375 -31.078125 C 125.367188 -30.910156 125.128906 -30.726562 124.890625 -30.53125 C 124.660156 -30.332031 124.5 -30.054688 124.40625 -29.703125 C 124.570312 -29.578125 124.71875 -29.515625 124.84375 -29.515625 C 125.039062 -29.554688 125.242188 -29.59375 125.453125 -29.625 C 125.648438 -29.71875 125.847656 -29.78125 126.046875 -29.8125 C 137.847656 -32.226562 149.695312 -34.226562 161.59375 -35.8125 C 167.332031 -36.53125 173.039062 -37.191406 178.71875 -37.796875 C 180.6875 -38.003906 182.632812 -38.207031 184.5625 -38.40625 C 185.238281 -38.507812 185.941406 -38.5625 186.671875 -38.5625 C 187.335938 -38.59375 188.007812 -38.523438 188.6875 -38.359375 C 188.78125 -38.328125 188.863281 -38.257812 188.9375 -38.15625 C 189.019531 -38.0625 189.0625 -37.976562 189.0625 -37.90625 C 189.101562 -37.644531 189.0625 -37.453125 188.9375 -37.328125 C 188.820312 -37.210938 188.6875 -37.140625 188.53125 -37.109375 Z M 52.234375 6.9375 C 52.234375 6.9375 52.253906 6.9375 52.296875 6.9375 C 52.585938 6.800781 52.859375 6.632812 53.109375 6.4375 C 53.359375 6.238281 53.523438 5.96875 53.609375 5.625 C 53.523438 5.625 53.460938 5.625 53.421875 5.625 C 52.617188 5.65625 52.109375 5.546875 51.890625 5.296875 C 51.671875 5.054688 51.664062 4.597656 51.875 3.921875 C 51.976562 3.484375 52.128906 3.046875 52.328125 2.609375 C 52.390625 2.484375 52.4375 2.382812 52.46875 2.3125 C 52.78125 1.507812 53.082031 0.726562 53.375 -0.03125 C 54.082031 -1.757812 54.765625 -3.507812 55.421875 -5.28125 C 55.453125 -5.351562 55.503906 -5.453125 55.578125 -5.578125 C 55.710938 -5.847656 55.796875 -6.113281 55.828125 -6.375 C 55.859375 -6.644531 55.789062 -6.914062 55.625 -7.1875 C 55.582031 -7.1875 55.546875 -7.1875 55.515625 -7.1875 C 55.316406 -7.15625 55.132812 -7.09375 54.96875 -7 C 54.851562 -6.96875 54.753906 -6.929688 54.671875 -6.890625 C 49.597656 -5.046875 44.570312 -3.097656 39.59375 -1.046875 C 34.625 1.003906 29.71875 3.238281 24.875 5.65625 C 20.957031 7.539062 17.160156 9.644531 13.484375 11.96875 C 11.347656 13.25 9.40625 14.769531 7.65625 16.53125 C 6.695312 17.414062 5.976562 18.476562 5.5 19.71875 C 5.351562 20.125 5.363281 20.503906 5.53125 20.859375 C 5.707031 21.222656 6.023438 21.46875 6.484375 21.59375 C 6.984375 21.738281 7.519531 21.8125 8.09375 21.8125 C 8.6875 21.8125 9.285156 21.753906 9.890625 21.640625 C 13.765625 20.953125 17.601562 19.984375 21.40625 18.734375 C 29.664062 16.078125 37.800781 13.0625 45.8125 9.6875 C 47.96875 8.8125 50.109375 7.894531 52.234375 6.9375 Z M 107.78125 -22.390625 C 107.8125 -22.472656 107.875 -22.535156 107.96875 -22.578125 C 108.113281 -22.648438 108.222656 -22.75 108.296875 -22.875 C 108.378906 -23 108.367188 -23.179688 108.265625 -23.421875 C 108.066406 -23.390625 107.835938 -23.328125 107.578125 -23.234375 C 106.234375 -22.867188 104.894531 -22.53125 103.5625 -22.21875 C 99.925781 -21.257812 96.3125 -20.269531 92.71875 -19.25 C 82.695312 -16.4375 72.765625 -13.320312 62.921875 -9.90625 C 62.054688 -9.632812 61.335938 -9.253906 60.765625 -8.765625 C 60.191406 -8.285156 59.78125 -7.601562 59.53125 -6.71875 C 59.394531 -6.28125 59.226562 -5.84375 59.03125 -5.40625 C 58.894531 -5.207031 58.789062 -5.003906 58.71875 -4.796875 C 58.46875 -4.203125 58.066406 -3.363281 57.515625 -2.28125 C 56.953125 -1.1875 56.390625 -0.0390625 55.828125 1.15625 C 55.265625 2.363281 54.875 3.394531 54.65625 4.25 C 54.4375 5.101562 54.523438 5.597656 54.921875 5.734375 C 55.492188 5.597656 56.015625 5.378906 56.484375 5.078125 C 56.722656 4.941406 56.96875 4.820312 57.21875 4.71875 C 68.070312 -0.0703125 78.679688 -5.378906 89.046875 -11.203125 C 93.160156 -13.566406 97.242188 -15.972656 101.296875 -18.421875 C 103.046875 -19.515625 104.804688 -20.582031 106.578125 -21.625 C 106.609375 -21.65625 106.644531 -21.671875 106.6875 -21.671875 C 107.082031 -21.867188 107.445312 -22.109375 107.78125 -22.390625 Z M 107.78125 -22.390625"/></g></g></g><g fill-opacity="1" fill="#000000"><g transform="translate(202.027924, 124.481968)"><g><path d="M 10.828125 -11.53125 C 9.859375 -10.375 8.707031 -9.3125 7.375 -8.34375 C 6.050781 -7.375 4.550781 -6.71875 2.875 -6.375 C 1.207031 -6.039062 -0.0859375 -6.164062 -1.015625 -6.75 C -1.953125 -7.332031 -2.140625 -8.625 -1.578125 -10.625 C -0.847656 -12.695312 0.15625 -14.671875 1.4375 -16.546875 C 1.726562 -16.953125 2.144531 -17.238281 2.6875 -17.40625 C 3.09375 -17.488281 3.441406 -17.414062 3.734375 -17.1875 C 4.035156 -16.96875 4.148438 -16.679688 4.078125 -16.328125 C 3.804688 -15.671875 3.503906 -15.015625 3.171875 -14.359375 C 2.847656 -13.710938 2.632812 -13.285156 2.53125 -13.078125 C 1.882812 -11.910156 1.4375 -10.691406 1.1875 -9.421875 C 1.1875 -8.691406 2.160156 -8.648438 4.109375 -9.296875 C 6.054688 -9.941406 7.945312 -11.113281 9.78125 -12.8125 C 11.625 -14.507812 12.503906 -15.007812 12.421875 -14.3125 C 12.335938 -13.613281 11.804688 -12.6875 10.828125 -11.53125 Z M 6.0625 -20.65625 C 5.96875 -20.582031 5.78125 -20.492188 5.5 -20.390625 C 5.21875 -20.285156 4.914062 -20.210938 4.59375 -20.171875 C 4.28125 -20.128906 4.03125 -20.179688 3.84375 -20.328125 C 3.664062 -20.472656 3.65625 -20.757812 3.8125 -21.1875 C 4.101562 -21.957031 4.410156 -22.628906 4.734375 -23.203125 C 5.054688 -23.773438 5.472656 -24.40625 5.984375 -25.09375 C 6.304688 -25.414062 6.65625 -25.585938 7.03125 -25.609375 C 7.414062 -25.640625 7.734375 -25.539062 7.984375 -25.3125 C 8.242188 -25.09375 8.320312 -24.78125 8.21875 -24.375 C 7.8125 -22.9375 7.09375 -21.695312 6.0625 -20.65625 Z M 6.0625 -20.65625"/></g></g></g><g fill-opacity="1" fill="#000000"><g transform="translate(212.679147, 124.468961)"><g><path d="M 21.609375 -13.65625 C 21.898438 -13.289062 21.535156 -12.625 20.515625 -11.65625 C 19.503906 -10.6875 18.421875 -9.875 17.265625 -9.21875 C 16.117188 -8.5625 14.789062 -7.90625 13.28125 -7.25 C 12.28125 -6.8125 11.210938 -6.664062 10.078125 -6.8125 C 8.953125 -6.957031 8.390625 -7.640625 8.390625 -8.859375 C 8.390625 -10.078125 8.675781 -11.289062 9.25 -12.5 C 9.8125 -13.738281 9.929688 -14.375 9.609375 -14.40625 C 9.296875 -14.445312 8.632812 -14.148438 7.625 -13.515625 C 5.019531 -11.785156 2.597656 -9.820312 0.359375 -7.625 C -0.234375 -6.894531 -0.992188 -6.492188 -1.921875 -6.421875 C -2.398438 -6.421875 -2.769531 -6.566406 -3.03125 -6.859375 C -3.300781 -7.160156 -3.332031 -7.488281 -3.125 -7.84375 C -1.519531 -10.8125 0.0976562 -13.742188 1.734375 -16.640625 C 2.097656 -17.234375 2.644531 -17.601562 3.375 -17.75 C 3.675781 -17.800781 3.957031 -17.703125 4.21875 -17.453125 C 4.488281 -17.210938 4.625 -16.941406 4.625 -16.640625 C 4.59375 -16.347656 4.472656 -16 4.265625 -15.59375 C 4.179688 -15.351562 4.097656 -15.125 4.015625 -14.90625 C 3.929688 -14.6875 3.898438 -14.503906 3.921875 -14.359375 C 3.953125 -14.210938 4.066406 -14.171875 4.265625 -14.234375 C 4.546875 -14.378906 4.820312 -14.53125 5.09375 -14.6875 C 5.78125 -15.09375 6.441406 -15.484375 7.078125 -15.859375 C 7.648438 -16.179688 8.242188 -16.46875 8.859375 -16.71875 C 9.484375 -16.976562 10.128906 -17.15625 10.796875 -17.25 C 11.890625 -17.320312 12.664062 -17.078125 13.125 -16.515625 C 13.582031 -15.953125 13.632812 -15.164062 13.28125 -14.15625 C 12.914062 -13.25 12.535156 -12.347656 12.140625 -11.453125 C 11.648438 -10.617188 11.566406 -9.984375 11.890625 -9.546875 C 12.222656 -9.109375 13.742188 -9.609375 16.453125 -11.046875 L 18.5 -12.25 C 20.425781 -13.5 21.460938 -13.96875 21.609375 -13.65625 Z M 21.609375 -13.65625"/></g></g></g><g fill-opacity="1" fill="#000000"><g transform="translate(232.697984, 124.444516)"><g><path d="M 15.546875 -10.5 C 14.492188 -9.46875 13.265625 -8.582031 11.859375 -7.84375 C 10.460938 -7.101562 9.289062 -6.617188 8.34375 -6.390625 C 7.40625 -6.160156 6.4375 -6.023438 5.4375 -5.984375 C 3.832031 -5.910156 2.351562 -6.128906 1 -6.640625 C -1.207031 -7.523438 -1.972656 -9.226562 -1.296875 -11.75 C -0.660156 -13.914062 0.628906 -15.609375 2.578125 -16.828125 C 4.523438 -18.046875 6.535156 -18.640625 8.609375 -18.609375 C 8.609375 -18.609375 8.628906 -18.609375 8.671875 -18.609375 C 9.203125 -18.648438 9.703125 -18.613281 10.171875 -18.5 C 10.972656 -18.207031 11.484375 -17.734375 11.703125 -17.078125 C 11.921875 -16.429688 11.773438 -15.707031 11.265625 -14.90625 C 10.097656 -13.132812 8.515625 -12.148438 6.515625 -11.953125 C 5.179688 -11.816406 3.894531 -11.875 2.65625 -12.125 C 2.425781 -12.164062 2.21875 -12.101562 2.03125 -11.9375 C 1.851562 -11.769531 1.742188 -11.566406 1.703125 -11.328125 C 1.335938 -9.765625 1.820312 -8.765625 3.15625 -8.328125 C 4.789062 -7.765625 6.492188 -7.769531 8.265625 -8.34375 C 10.296875 -8.976562 12.234375 -10.175781 14.078125 -11.9375 C 15.921875 -13.707031 16.984375 -14.535156 17.265625 -14.421875 C 17.546875 -14.304688 17.628906 -13.96875 17.515625 -13.40625 C 17.265625 -12.507812 16.609375 -11.539062 15.546875 -10.5 Z M 3.921875 -14.890625 C 3.804688 -14.753906 3.722656 -14.609375 3.671875 -14.453125 C 3.628906 -14.304688 3.691406 -14.164062 3.859375 -14.03125 C 4.492188 -13.675781 5.1875 -13.550781 5.9375 -13.65625 C 6.6875 -13.757812 7.316406 -14.039062 7.828125 -14.5 C 8.347656 -14.96875 8.570312 -15.539062 8.5 -16.21875 C 8.445312 -16.445312 8.320312 -16.59375 8.125 -16.65625 C 7.925781 -16.726562 7.722656 -16.742188 7.515625 -16.703125 C 6.171875 -16.453125 4.972656 -15.847656 3.921875 -14.890625 Z M 3.921875 -14.890625"/></g></g></g><g fill-opacity="1" fill="#000000"><g transform="translate(248.592886, 124.425106)"><g><path d="M 13.203125 -13.859375 C 10.328125 -12.785156 8.253906 -11.910156 6.984375 -11.234375 C 6.046875 -10.773438 5.507812 -10.394531 5.375 -10.09375 C 5.238281 -9.789062 5.34375 -9.238281 5.6875 -8.4375 C 5.6875 -8.40625 5.71875 -8.351562 5.78125 -8.28125 C 6.175781 -7.3125 6.414062 -6.3125 6.5 -5.28125 C 6.625 -3.1875 4.84375 -1.71875 1.15625 -0.875 C -2.53125 -0.0390625 -4.992188 -0.0078125 -6.234375 -0.78125 C -7.484375 -1.5625 -7.867188 -2.550781 -7.390625 -3.75 C -6.910156 -4.957031 -5.660156 -6.179688 -3.640625 -7.421875 C -1.617188 -8.660156 -0.269531 -9.550781 0.40625 -10.09375 C 1.09375 -10.644531 1.296875 -11.257812 1.015625 -11.9375 C 0.929688 -12.175781 0.832031 -12.410156 0.71875 -12.640625 C 0.476562 -13.210938 0.234375 -13.796875 -0.015625 -14.390625 C -0.484375 -15.484375 -0.6875 -16.554688 -0.625 -17.609375 C -0.570312 -18.671875 -0.1875 -19.5625 0.53125 -20.28125 C 1.25 -21 2.363281 -21.382812 3.875 -21.4375 C 4.726562 -21.476562 5.488281 -21.367188 6.15625 -21.109375 C 6.832031 -20.847656 7.375 -20.363281 7.78125 -19.65625 C 8.113281 -19.164062 8.019531 -18.71875 7.5 -18.3125 C 7.15625 -18.039062 6.78125 -18 6.375 -18.1875 C 6.125 -18.300781 5.878906 -18.457031 5.640625 -18.65625 C 5.640625 -18.707031 5.640625 -18.734375 5.640625 -18.734375 C 5.523438 -18.804688 5.425781 -18.878906 5.34375 -18.953125 C 5.21875 -19.117188 5.09375 -19.25 4.96875 -19.34375 C 4.488281 -19.6875 4.007812 -19.789062 3.53125 -19.65625 C 3.050781 -19.519531 2.695312 -19.148438 2.46875 -18.546875 C 2.300781 -18.066406 2.21875 -17.582031 2.21875 -17.09375 C 2.257812 -16.5 2.398438 -15.914062 2.640625 -15.34375 C 2.796875 -15 2.941406 -14.679688 3.078125 -14.390625 C 3.378906 -13.585938 3.628906 -13.035156 3.828125 -12.734375 C 4.035156 -12.441406 4.28125 -12.316406 4.5625 -12.359375 C 4.84375 -12.398438 7.421875 -13.328125 12.296875 -15.140625 C 13.359375 -15.492188 13.660156 -15.066406 13.203125 -13.859375 Z M 1.390625 -3.421875 C 2.671875 -3.847656 3.207031 -4.703125 3 -5.984375 C 3 -6.078125 2.984375 -6.175781 2.953125 -6.28125 C 2.867188 -6.96875 2.71875 -7.5 2.5 -7.875 C 2.28125 -8.25 1.785156 -8.238281 1.015625 -7.84375 C -0.859375 -6.769531 -2.597656 -5.507812 -4.203125 -4.0625 C -4.316406 -3.9375 -4.414062 -3.820312 -4.5 -3.71875 C -4.5 -3.71875 -4.519531 -3.6875 -4.5625 -3.625 C -4.664062 -3.488281 -4.679688 -3.328125 -4.609375 -3.140625 C -4.535156 -2.960938 -4.375 -2.875 -4.125 -2.875 C -2.25 -2.582031 -0.410156 -2.765625 1.390625 -3.421875 Z M 1.390625 -3.421875"/></g></g></g><g fill-opacity="1" fill="#000000"><g transform="translate(260.691583, 124.410332)"><g><path d="M 22.15625 -12.765625 C 21.832031 -12.472656 21.488281 -12.207031 21.125 -11.96875 C 19.957031 -11.238281 18.90625 -10.660156 17.96875 -10.234375 C 17.03125 -9.816406 15.925781 -9.390625 14.65625 -8.953125 C 12.757812 -8.378906 11.539062 -8.503906 11 -9.328125 C 10.46875 -10.148438 10.382812 -11.289062 10.75 -12.75 C 11.257812 -14.820312 11.550781 -16.335938 11.625 -17.296875 C 11.707031 -18.265625 11.390625 -18.597656 10.671875 -18.296875 C 9.953125 -17.992188 8.648438 -17 6.765625 -15.3125 C 4.117188 -13.019531 1.859375 -10.410156 -0.015625 -7.484375 C -0.253906 -7.085938 -0.539062 -6.757812 -0.875 -6.5 C -1.21875 -6.25 -1.644531 -6.125 -2.15625 -6.125 C -2.644531 -6.125 -3 -6.25 -3.21875 -6.5 C -3.445312 -6.757812 -3.460938 -7.101562 -3.265625 -7.53125 C -2.191406 -9.90625 -1.09375 -12.253906 0.03125 -14.578125 C 1.957031 -18.628906 3.859375 -22.65625 5.734375 -26.65625 C 7.128906 -29.675781 8.507812 -32.6875 9.875 -35.6875 C 10.707031 -37.457031 11.523438 -39.222656 12.328125 -40.984375 C 12.398438 -41.128906 12.484375 -41.285156 12.578125 -41.453125 C 12.648438 -41.648438 12.734375 -41.847656 12.828125 -42.046875 C 12.929688 -42.242188 13.046875 -42.460938 13.171875 -42.703125 C 13.285156 -42.898438 13.488281 -43.0625 13.78125 -43.1875 C 14.082031 -43.320312 14.382812 -43.40625 14.6875 -43.4375 C 14.988281 -43.476562 15.222656 -43.460938 15.390625 -43.390625 C 15.617188 -43.222656 15.75 -43.046875 15.78125 -42.859375 C 15.8125 -42.679688 15.78125 -42.492188 15.6875 -42.296875 C 15.644531 -42.253906 15.625 -42.191406 15.625 -42.109375 C 15.257812 -41.035156 14.878906 -39.992188 14.484375 -38.984375 C 12.179688 -33.421875 9.664062 -27.929688 6.9375 -22.515625 C 6.738281 -22.148438 6.5 -21.707031 6.21875 -21.1875 C 5.820312 -20.46875 5.453125 -19.753906 5.109375 -19.046875 C 4.765625 -18.347656 4.648438 -17.878906 4.765625 -17.640625 C 4.890625 -17.410156 5.4375 -17.597656 6.40625 -18.203125 C 6.695312 -18.398438 6.957031 -18.601562 7.1875 -18.8125 C 7.945312 -19.320312 8.703125 -19.800781 9.453125 -20.25 C 10.109375 -20.6875 10.832031 -20.925781 11.625 -20.96875 C 13.539062 -21.09375 14.625 -20.226562 14.875 -18.375 C 14.957031 -17.625 14.925781 -16.882812 14.78125 -16.15625 C 14.632812 -15.425781 14.460938 -14.707031 14.265625 -14 C 14.234375 -13.800781 14.195312 -13.601562 14.15625 -13.40625 C 13.832031 -12.164062 13.921875 -11.453125 14.421875 -11.265625 C 14.921875 -11.085938 15.617188 -11.1875 16.515625 -11.5625 C 17.421875 -11.945312 18.335938 -12.421875 19.265625 -12.984375 C 19.898438 -13.304688 20.457031 -13.582031 20.9375 -13.8125 C 21.425781 -14.050781 21.789062 -14.15625 22.03125 -14.125 C 22.46875 -14.050781 22.664062 -13.875 22.625 -13.59375 C 22.59375 -13.3125 22.4375 -13.035156 22.15625 -12.765625 Z M 22.15625 -12.765625"/></g></g></g><g fill-opacity="1" fill="#000000"><g transform="translate(281.529745, 124.384886)"><g/></g></g><g fill-opacity="1" fill="#000000"><g transform="translate(302.176732, 124.359673)"><g><path d="M 11.453125 -11 C 7.253906 -2.445312 5.039062 2.066406 4.8125 2.546875 C 4.53125 3.066406 4.242188 3.609375 3.953125 4.171875 C 3.878906 4.316406 3.828125 4.472656 3.796875 4.640625 C 3.234375 5.734375 2.691406 6.835938 2.171875 7.953125 C -1.140625 14.648438 -4.289062 21.378906 -7.28125 28.140625 C -7.28125 28.234375 -7.3125 28.316406 -7.375 28.390625 C -7.40625 28.554688 -7.476562 28.722656 -7.59375 28.890625 C -7.988281 29.453125 -8.488281 29.6875 -9.09375 29.59375 C -9.257812 29.632812 -9.421875 29.632812 -9.578125 29.59375 C -9.910156 29.519531 -10.160156 29.382812 -10.328125 29.1875 C -10.503906 28.988281 -10.539062 28.707031 -10.4375 28.34375 C -10 27.007812 -9.476562 25.6875 -8.875 24.375 C -6.789062 19.925781 -4.710938 15.453125 -2.640625 10.953125 C -1.398438 8.273438 -0.15625 5.585938 1.09375 2.890625 C 1.632812 1.816406 3.316406 -1.59375 6.140625 -7.34375 C 8.972656 -13.09375 10.625 -16.46875 11.09375 -17.46875 C 14.820312 -25.082031 18.738281 -32.625 22.84375 -40.09375 C 25.46875 -44.976562 28.066406 -49.890625 30.640625 -54.828125 C 30.929688 -55.421875 31.296875 -55.957031 31.734375 -56.4375 C 32.097656 -56.8125 32.535156 -57.035156 33.046875 -57.109375 C 33.203125 -57.191406 33.363281 -57.207031 33.53125 -57.15625 C 33.9375 -57.207031 34.25 -57.101562 34.46875 -56.84375 C 34.6875 -56.582031 34.726562 -56.269531 34.59375 -55.90625 C 34.488281 -55.632812 34.375 -55.351562 34.25 -55.0625 C 33.53125 -53.34375 32.726562 -51.632812 31.84375 -49.9375 C 28.882812 -44.21875 25.882812 -38.507812 22.84375 -32.8125 C 21.289062 -29.894531 19.753906 -26.96875 18.234375 -24.03125 C 17.472656 -22.625 16.726562 -21.203125 16 -19.765625 C 15.738281 -19.234375 15.472656 -18.695312 15.203125 -18.15625 C 15.140625 -18.0625 15.09375 -17.976562 15.0625 -17.90625 C 14.945312 -17.707031 14.859375 -17.503906 14.796875 -17.296875 C 14.734375 -17.097656 14.738281 -16.921875 14.8125 -16.765625 C 14.9375 -16.597656 15.101562 -16.492188 15.3125 -16.453125 C 15.507812 -16.492188 15.707031 -16.53125 15.90625 -16.5625 C 15.976562 -16.625 16.0625 -16.671875 16.15625 -16.703125 C 18.351562 -17.347656 20.554688 -17.988281 22.765625 -18.625 C 28.921875 -20.4375 35.050781 -22.347656 41.15625 -24.359375 C 47.269531 -26.367188 53.332031 -28.597656 59.34375 -31.046875 C 63.082031 -32.578125 66.785156 -34.195312 70.453125 -35.90625 C 74.128906 -37.613281 77.734375 -39.503906 81.265625 -41.578125 C 84.210938 -43.316406 86.984375 -45.351562 89.578125 -47.6875 C 90.867188 -48.832031 92 -50.132812 92.96875 -51.59375 C 94.914062 -54.507812 95.03125 -57.234375 93.3125 -59.765625 C 92.269531 -61.273438 90.945312 -62.507812 89.34375 -63.46875 C 86.9375 -65.039062 84.332031 -66.257812 81.53125 -67.125 C 74.664062 -69.21875 67.523438 -70.539062 60.109375 -71.09375 C 55.753906 -71.394531 51.347656 -71.5625 46.890625 -71.59375 C 44.484375 -71.582031 42.0625 -71.523438 39.625 -71.421875 C 35.976562 -71.253906 32.320312 -70.925781 28.65625 -70.4375 C 25 -69.945312 21.347656 -69.113281 17.703125 -67.9375 C 15.390625 -67.195312 13.128906 -66.242188 10.921875 -65.078125 C 9.234375 -64.273438 7.734375 -63.207031 6.421875 -61.875 C 6.054688 -61.46875 5.628906 -61.164062 5.140625 -60.96875 C 4.898438 -60.851562 4.679688 -60.816406 4.484375 -60.859375 C 4.078125 -60.816406 3.738281 -60.929688 3.46875 -61.203125 C 3.101562 -61.609375 3.101562 -62.046875 3.46875 -62.515625 C 4.03125 -63.285156 4.679688 -63.953125 5.421875 -64.515625 C 6.160156 -65.085938 6.929688 -65.59375 7.734375 -66.03125 C 11.410156 -68.164062 15.226562 -69.738281 19.1875 -70.75 C 24.03125 -71.988281 28.882812 -72.75 33.75 -73.03125 C 38.46875 -73.394531 43.191406 -73.597656 47.921875 -73.640625 L 48.03125 -73.640625 C 48.925781 -73.640625 49.828125 -73.640625 50.734375 -73.640625 C 55.265625 -73.578125 59.75 -73.359375 64.1875 -72.984375 C 68.632812 -72.609375 73.023438 -71.9375 77.359375 -70.96875 C 79.609375 -70.457031 81.816406 -69.851562 83.984375 -69.15625 C 86.160156 -68.46875 88.25 -67.59375 90.25 -66.53125 C 92.445312 -65.457031 94.367188 -64.0625 96.015625 -62.34375 C 99.628906 -58.394531 99.453125 -54.007812 95.484375 -49.1875 C 93.640625 -47.0625 91.578125 -45.195312 89.296875 -43.59375 C 86.421875 -41.519531 83.460938 -39.644531 80.421875 -37.96875 C 77.378906 -36.300781 74.273438 -34.765625 71.109375 -33.359375 C 64.578125 -30.347656 57.960938 -27.644531 51.265625 -25.25 C 44.578125 -22.851562 37.863281 -20.644531 31.125 -18.625 C 25.820312 -17.03125 20.53125 -15.488281 15.25 -14 C 14.414062 -13.800781 13.675781 -13.46875 13.03125 -13 C 12.382812 -12.539062 11.859375 -11.875 11.453125 -11 Z M 103.578125 11.578125 C 105.316406 13.078125 94.925781 10.476562 72.40625 3.78125 C 56.976562 -0.894531 41.414062 -5.304688 25.71875 -9.453125 C 21.34375 -10.554688 16.953125 -11.625 12.546875 -12.65625 C 10.785156 -13.113281 9.019531 -13.546875 7.25 -13.953125 C 6.644531 -14.078125 6.046875 -14.1875 5.453125 -14.28125 C 5.335938 -14.28125 5.21875 -14.300781 5.09375 -14.34375 C 4.6875 -14.34375 4.742188 -14.875 5.265625 -15.9375 C 5.785156 -17 6.425781 -17.335938 7.1875 -16.953125 C 8.195312 -16.421875 10.5625 -15.640625 14.28125 -14.609375 C 18.007812 -13.578125 22.820312 -12.257812 28.71875 -10.65625 C 39.882812 -7.75 53.226562 -4.03125 68.75 0.5 C 90.226562 6.382812 101.835938 10.078125 103.578125 11.578125 Z M 103.578125 11.578125"/></g></g></g><g fill-opacity="1" fill="#000000"><g transform="translate(362.560961, 124.285936)"><g><path d="M 19.796875 -13.9375 C 20.222656 -13.695312 20.253906 -13.101562 19.890625 -12.15625 C 19.367188 -11.457031 18.804688 -10.804688 18.203125 -10.203125 C 17.597656 -9.597656 16.941406 -9.0625 16.234375 -8.59375 C 16.179688 -8.59375 16.15625 -8.570312 16.15625 -8.53125 C 15.675781 -8.207031 15.175781 -7.925781 14.65625 -7.6875 C 10.3125 -6.125 8.085938 -7.046875 7.984375 -10.453125 C 6.222656 -8.910156 5.039062 -7.96875 4.4375 -7.625 C 3.007812 -6.769531 1.453125 -6.382812 -0.234375 -6.46875 C -1.472656 -6.539062 -2.316406 -6.914062 -2.765625 -7.59375 C -3.210938 -8.28125 -3.171875 -9.207031 -2.640625 -10.375 C -1.835938 -12.21875 -0.695312 -13.859375 0.78125 -15.296875 C 2.507812 -16.898438 4.429688 -18.1875 6.546875 -19.15625 C 7.660156 -19.726562 8.835938 -19.945312 10.078125 -19.8125 C 11.316406 -19.738281 12.066406 -19.039062 12.328125 -17.71875 C 12.441406 -17.3125 12.34375 -16.957031 12.03125 -16.65625 C 11.625 -16.289062 11.160156 -16.207031 10.640625 -16.40625 C 10.597656 -16.40625 10.546875 -16.410156 10.484375 -16.421875 C 10.421875 -16.441406 10.375 -16.472656 10.34375 -16.515625 C 9.8125 -17.242188 9.273438 -17.546875 8.734375 -17.421875 C 8.203125 -17.304688 7.632812 -17.066406 7.03125 -16.703125 C 4.226562 -15.054688 2.144531 -12.765625 0.78125 -9.828125 C 0.707031 -9.703125 0.660156 -9.5625 0.640625 -9.40625 C 0.617188 -9.25 0.664062 -9.128906 0.78125 -9.046875 C 1.101562 -8.929688 1.460938 -8.953125 1.859375 -9.109375 C 2.265625 -9.265625 2.664062 -9.492188 3.0625 -9.796875 C 3.46875 -10.097656 3.804688 -10.347656 4.078125 -10.546875 C 4.117188 -10.597656 4.140625 -10.625 4.140625 -10.625 C 5.460938 -11.738281 6.765625 -12.878906 8.046875 -14.046875 C 8.609375 -14.648438 9.304688 -14.988281 10.140625 -15.0625 C 11.347656 -15.0625 11.847656 -14.523438 11.640625 -13.453125 C 11.535156 -13.054688 11.421875 -12.65625 11.296875 -12.25 C 10.816406 -10.519531 10.796875 -9.503906 11.234375 -9.203125 C 11.671875 -8.898438 12.335938 -8.898438 13.234375 -9.203125 C 14.140625 -9.503906 15.039062 -10.078125 15.9375 -10.921875 C 16.84375 -11.773438 17.601562 -12.550781 18.21875 -13.25 C 18.84375 -13.945312 19.367188 -14.175781 19.796875 -13.9375 Z M 19.796875 -13.9375"/></g></g></g><g fill-opacity="1" fill="#000000"><g transform="translate(380.668052, 124.263824)"><g><path d="M 28.53125 -13.71875 C 29.164062 -14.113281 29.664062 -14.210938 30.03125 -14.015625 C 30.394531 -13.816406 30.257812 -13.253906 29.625 -12.328125 C 28.820312 -11.242188 27.382812 -10.09375 25.3125 -8.875 C 23.25 -7.65625 21.425781 -7.117188 19.84375 -7.265625 C 18.257812 -7.421875 17.796875 -8.59375 18.453125 -10.78125 C 19.117188 -12.96875 19.476562 -14.191406 19.53125 -14.453125 C 19.59375 -14.722656 19.546875 -14.875 19.390625 -14.90625 C 19.234375 -14.9375 18.875 -14.753906 18.3125 -14.359375 C 16.675781 -13.222656 15.070312 -12.035156 13.5 -10.796875 C 12.832031 -10.296875 12.171875 -9.757812 11.515625 -9.1875 C 11.109375 -8.820312 10.6875 -8.457031 10.25 -8.09375 C 10.25 -8.09375 10.234375 -8.078125 10.203125 -8.046875 C 9.722656 -7.566406 9.140625 -7.25 8.453125 -7.09375 C 8.140625 -7 7.8125 -6.960938 7.46875 -6.984375 C 7.125 -7.015625 6.832031 -7.148438 6.59375 -7.390625 C 6.320312 -7.648438 6.222656 -7.929688 6.296875 -8.234375 C 6.367188 -8.546875 6.59375 -9 6.96875 -9.59375 C 7.351562 -10.195312 7.773438 -10.859375 8.234375 -11.578125 C 8.703125 -12.296875 8.960938 -12.738281 9.015625 -12.90625 C 9.078125 -13.070312 9.050781 -13.238281 8.9375 -13.40625 C 8.8125 -13.5625 8.671875 -13.609375 8.515625 -13.546875 C 8.359375 -13.484375 7.78125 -13.085938 6.78125 -12.359375 C 5.78125 -11.640625 4.414062 -10.632812 2.6875 -9.34375 C 1.882812 -8.738281 1.101562 -8.117188 0.34375 -7.484375 C 0.132812 -7.285156 -0.0820312 -7.101562 -0.3125 -6.9375 C -0.863281 -6.46875 -1.476562 -6.210938 -2.15625 -6.171875 C -2.644531 -6.140625 -3.007812 -6.25 -3.25 -6.5 C -3.5 -6.757812 -3.539062 -7.101562 -3.375 -7.53125 C -3.269531 -7.863281 -3.132812 -8.164062 -2.96875 -8.4375 C -2.875 -8.5625 -2.8125 -8.691406 -2.78125 -8.828125 C -1.332031 -11.734375 0.0859375 -14.65625 1.484375 -17.59375 C 1.523438 -17.664062 1.5625 -17.765625 1.59375 -17.890625 C 1.757812 -18.203125 1.925781 -18.503906 2.09375 -18.796875 C 2.519531 -19.265625 3.03125 -19.414062 3.625 -19.25 C 4.332031 -19.050781 4.601562 -18.648438 4.4375 -18.046875 C 4.101562 -17.140625 3.785156 -16.238281 3.484375 -15.34375 C 3.316406 -14.945312 3.148438 -14.546875 2.984375 -14.140625 C 2.710938 -13.429688 2.625 -12.976562 2.71875 -12.78125 C 2.820312 -12.582031 3.273438 -12.71875 4.078125 -13.1875 C 4.628906 -13.550781 5.164062 -13.914062 5.6875 -14.28125 C 6.332031 -14.726562 6.953125 -15.132812 7.546875 -15.5 C 8.472656 -16.0625 9.421875 -16.546875 10.390625 -16.953125 C 10.859375 -17.148438 11.34375 -17.296875 11.84375 -17.390625 C 12.351562 -17.492188 12.828125 -17.382812 13.265625 -17.0625 C 13.585938 -16.789062 13.722656 -16.476562 13.671875 -16.125 C 13.628906 -15.78125 13.535156 -15.453125 13.390625 -15.140625 C 13.140625 -14.546875 13.035156 -14.164062 13.078125 -14 C 13.128906 -13.832031 13.269531 -13.796875 13.5 -13.890625 C 13.738281 -13.992188 14.15625 -14.226562 14.75 -14.59375 C 15.351562 -14.957031 16.003906 -15.359375 16.703125 -15.796875 C 17.578125 -16.367188 18.492188 -16.914062 19.453125 -17.4375 C 20.253906 -17.957031 21.113281 -18.273438 22.03125 -18.390625 C 23.28125 -18.472656 23.789062 -17.960938 23.5625 -16.859375 C 23.34375 -15.765625 22.90625 -14.457031 22.25 -12.9375 C 21.59375 -11.414062 21.519531 -10.484375 22.03125 -10.140625 C 22.550781 -9.796875 23.703125 -10.265625 25.484375 -11.546875 C 27.273438 -12.828125 28.289062 -13.550781 28.53125 -13.71875 Z M 28.53125 -13.71875"/></g></g></g><g fill-opacity="1" fill="#000000"><g transform="translate(9.098299, 121.981891)"><g><path d="M 16.484375 -15.265625 C 16.023438 -15.210938 15.628906 -15.109375 15.296875 -14.953125 C 14.972656 -14.796875 14.8125 -14.519531 14.8125 -14.125 L 14.8125 -1.25 C 14.8125 -0.851562 14.972656 -0.578125 15.296875 -0.421875 C 15.628906 -0.273438 16.023438 -0.171875 16.484375 -0.109375 L 16.484375 0 L 10.890625 0 L 10.890625 -0.109375 C 11.347656 -0.171875 11.738281 -0.273438 12.0625 -0.421875 C 12.394531 -0.578125 12.5625 -0.851562 12.5625 -1.25 L 12.5625 -7.40625 L 4.234375 -7.40625 L 4.234375 -1.25 C 4.234375 -0.851562 4.398438 -0.578125 4.734375 -0.421875 C 5.066406 -0.273438 5.457031 -0.171875 5.90625 -0.109375 L 5.90625 0 L 0.328125 0 L 0.328125 -0.109375 C 0.785156 -0.171875 1.175781 -0.273438 1.5 -0.421875 C 1.832031 -0.578125 2 -0.851562 2 -1.25 L 2 -14.125 C 2 -14.519531 1.832031 -14.796875 1.5 -14.953125 C 1.175781 -15.109375 0.785156 -15.210938 0.328125 -15.265625 L 0.328125 -15.375 L 5.90625 -15.375 L 5.90625 -15.265625 C 5.457031 -15.210938 5.066406 -15.109375 4.734375 -14.953125 C 4.398438 -14.796875 4.234375 -14.519531 4.234375 -14.125 L 4.234375 -7.78125 L 12.5625 -7.78125 L 12.5625 -14.125 C 12.5625 -14.519531 12.394531 -14.796875 12.0625 -14.953125 C 11.738281 -15.109375 11.347656 -15.210938 10.890625 -15.265625 L 10.890625 -15.375 L 16.484375 -15.375 Z M 16.484375 -15.265625"/></g></g></g><g fill-opacity="1" fill="#000000"><g transform="translate(25.907401, 121.981891)"><g><path d="M 2.4375 -13.046875 C 2.070312 -13.046875 1.769531 -13.164062 1.53125 -13.40625 C 1.289062 -13.65625 1.171875 -13.960938 1.171875 -14.328125 C 1.171875 -14.671875 1.289062 -14.960938 1.53125 -15.203125 C 1.769531 -15.453125 2.070312 -15.578125 2.4375 -15.578125 C 2.789062 -15.578125 3.085938 -15.453125 3.328125 -15.203125 C 3.566406 -14.960938 3.6875 -14.671875 3.6875 -14.328125 C 3.6875 -13.960938 3.566406 -13.65625 3.328125 -13.40625 C 3.085938 -13.164062 2.789062 -13.046875 2.4375 -13.046875 Z M 1.421875 0 L 1.5625 -1.515625 L 1.5625 -9.953125 C 1.414062 -10.054688 1.210938 -10.144531 0.953125 -10.21875 C 0.703125 -10.289062 0.457031 -10.332031 0.21875 -10.34375 L 0.21875 -10.4375 L 3.6875 -10.765625 L 3.578125 -9.140625 L 3.578125 -2.046875 C 3.578125 -1.460938 3.640625 -1.03125 3.765625 -0.75 C 3.890625 -0.46875 4.113281 -0.21875 4.4375 0 Z M 1.421875 0"/></g></g></g><g fill-opacity="1" fill="#000000"><g transform="translate(31.005065, 121.981891)"><g><path d="M 0.9375 2.984375 L 0.90625 2.921875 C 1.820312 1.765625 1.773438 0.757812 0.765625 -0.09375 L 3.890625 -2.765625 C 3.960938 -2.660156 4 -2.457031 4 -2.15625 C 4 -1.625 3.890625 -1.082031 3.671875 -0.53125 C 3.453125 0.0078125 3.15625 0.535156 2.78125 1.046875 C 2.40625 1.566406 2 2.03125 1.5625 2.4375 Z M 0.9375 2.984375"/></g></g></g><g fill-opacity="1" fill="#000000"><g transform="translate(35.773134, 121.981891)"><g/></g></g><g fill-opacity="1" fill="#000000"><g transform="translate(40.167666, 121.981891)"><g><path d="M 0.328125 0 L 0.328125 -0.109375 C 0.785156 -0.171875 1.175781 -0.273438 1.5 -0.421875 C 1.832031 -0.578125 2 -0.851562 2 -1.25 L 2 -14.125 C 2 -14.519531 1.832031 -14.796875 1.5 -14.953125 C 1.175781 -15.109375 0.785156 -15.210938 0.328125 -15.265625 L 0.328125 -15.375 L 5.90625 -15.375 L 5.90625 -15.265625 C 5.457031 -15.210938 5.066406 -15.109375 4.734375 -14.953125 C 4.398438 -14.796875 4.234375 -14.519531 4.234375 -14.125 L 4.234375 -1.25 C 4.234375 -0.851562 4.398438 -0.578125 4.734375 -0.421875 C 5.066406 -0.273438 5.457031 -0.171875 5.90625 -0.109375 L 5.90625 0 Z M 0.328125 0"/></g></g></g><g fill-opacity="1" fill="#000000"><g transform="translate(46.407903, 121.981891)"><g><path d="M 0.9375 -9.96875 L 0.90625 -10.046875 C 1.820312 -11.203125 1.773438 -12.203125 0.765625 -13.046875 L 3.890625 -15.734375 C 3.960938 -15.628906 4 -15.421875 4 -15.109375 C 4 -14.597656 3.890625 -14.0625 3.671875 -13.5 C 3.453125 -12.945312 3.15625 -12.414062 2.78125 -11.90625 C 2.40625 -11.394531 2 -10.929688 1.5625 -10.515625 Z M 0.9375 -9.96875"/></g></g></g><g fill-opacity="1" fill="#000000"><g transform="translate(51.175973, 121.981891)"><g><path d="M 16.0625 0 L 16.1875 -1.515625 L 16.1875 -6.75 C 16.1875 -7.582031 16.078125 -8.222656 15.859375 -8.671875 C 15.648438 -9.117188 15.382812 -9.425781 15.0625 -9.59375 C 14.75 -9.757812 14.421875 -9.84375 14.078125 -9.84375 C 13.484375 -9.84375 12.925781 -9.671875 12.40625 -9.328125 C 11.894531 -8.984375 11.351562 -8.597656 10.78125 -8.171875 C 10.8125 -7.984375 10.835938 -7.769531 10.859375 -7.53125 C 10.878906 -7.300781 10.890625 -7.050781 10.890625 -6.78125 L 10.890625 -2.046875 C 10.890625 -1.460938 10.953125 -1.03125 11.078125 -0.75 C 11.203125 -0.46875 11.425781 -0.21875 11.75 0 L 8.75 0 L 8.875 -1.515625 L 8.875 -6.75 C 8.875 -7.582031 8.765625 -8.222656 8.546875 -8.671875 C 8.335938 -9.117188 8.070312 -9.425781 7.75 -9.59375 C 7.425781 -9.757812 7.097656 -9.84375 6.765625 -9.84375 C 6.179688 -9.84375 5.644531 -9.679688 5.15625 -9.359375 C 4.664062 -9.035156 4.140625 -8.671875 3.578125 -8.265625 L 3.578125 -2.046875 C 3.578125 -1.460938 3.640625 -1.03125 3.765625 -0.75 C 3.890625 -0.46875 4.113281 -0.21875 4.4375 0 L 1.421875 0 L 1.5625 -1.515625 L 1.5625 -9.953125 C 1.414062 -10.054688 1.210938 -10.144531 0.953125 -10.21875 C 0.703125 -10.289062 0.457031 -10.332031 0.21875 -10.34375 L 0.21875 -10.4375 L 3.6875 -10.765625 L 3.578125 -9.140625 L 3.578125 -8.75 C 3.972656 -9.039062 4.394531 -9.34375 4.84375 -9.65625 C 5.300781 -9.96875 5.796875 -10.234375 6.328125 -10.453125 C 6.859375 -10.671875 7.40625 -10.78125 7.96875 -10.78125 C 8.320312 -10.78125 8.675781 -10.722656 9.03125 -10.609375 C 9.394531 -10.492188 9.726562 -10.273438 10.03125 -9.953125 C 10.332031 -9.628906 10.554688 -9.164062 10.703125 -8.5625 L 10.703125 -8.59375 C 11.097656 -8.882812 11.53125 -9.203125 12 -9.546875 C 12.476562 -9.890625 12.992188 -10.179688 13.546875 -10.421875 C 14.097656 -10.660156 14.679688 -10.78125 15.296875 -10.78125 C 15.734375 -10.78125 16.175781 -10.675781 16.625 -10.46875 C 17.082031 -10.269531 17.460938 -9.882812 17.765625 -9.3125 C 18.066406 -8.738281 18.21875 -7.894531 18.21875 -6.78125 L 18.21875 -2.046875 C 18.21875 -1.460938 18.273438 -1.03125 18.390625 -0.75 C 18.515625 -0.46875 18.738281 -0.21875 19.0625 0 Z M 16.0625 0"/></g></g></g></svg>